<svg xmlns="http://www.w3.org/2000/svg" viewBox="0 0 200 200" width="200" height="200"><title>Maete-zuki</title><rect x="0" y="0" width="200" height="200" rx="24" fill="#F3EFE6"/><line x1="14" y1="185" x2="186" y2="185" stroke="#1E2430" stroke-width="1.5" opacity="0.25"/><ellipse cx="88.0" cy="185" rx="62" ry="5" fill="#1E2430" opacity="0.12"/><polyline points="92.0,63.0 100.0,84.0 114.0,56.0" fill="none" stroke="#1E2430" stroke-width="15" stroke-linecap="round" stroke-linejoin="round"/><polyline points="92.0,63.0 100.0,84.0 114.0,56.0" fill="none" stroke="#D5DAE1" stroke-width="11" stroke-linecap="round" stroke-linejoin="round"/><circle cx="115.8" cy="52.4" r="6.5" fill="#C99A72" stroke="#1E2430" stroke-width="2"/><polyline points="92.0,112.0 74.0,146.0 58.0,179.0" fill="none" stroke="#1E2430" stroke-width="16" stroke-linecap="round" stroke-linejoin="round"/><polyline points="92.0,112.0 74.0,146.0 58.0,179.0" fill="none" stroke="#D5DAE1" stroke-width="12" stroke-linecap="round" stroke-linejoin="round"/><polyline points="58.0,179.0 71.0,184.0" fill="none" stroke="#1E2430" stroke-width="10" stroke-linecap="round" stroke-linejoin="round"/><polyline points="58.0,179.0 71.0,184.0" fill="none" stroke="#C99A72" stroke-width="6" stroke-linecap="round" stroke-linejoin="round"/><polyline points="92.0,112.0 114.0,144.0 118.0,180.0" fill="none" stroke="#1E2430" stroke-width="16" stroke-linecap="round" stroke-linejoin="round"/><polyline points="92.0,112.0 114.0,144.0 118.0,180.0" fill="none" stroke="#FFFFFF" stroke-width="12" stroke-linecap="round" stroke-linejoin="round"/><polyline points="118.0,180.0 132.0,183.0" fill="none" stroke="#1E2430" stroke-width="10" stroke-linecap="round" stroke-linejoin="round"/><polyline points="118.0,180.0 132.0,183.0" fill="none" stroke="#E9BC93" stroke-width="6" stroke-linecap="round" stroke-linejoin="round"/><polyline points="92.0,112.0 95.0,62.0" fill="none" stroke="#1E2430" stroke-width="28" stroke-linecap="round" stroke-linejoin="round"/><polyline points="92.0,112.0 95.0,62.0" fill="none" stroke="#FFFFFF" stroke-width="24" stroke-linecap="round" stroke-linejoin="round"/><polyline points="92.1,110.0 92.5,104.0" fill="none" stroke="#1E2430" stroke-width="28" stroke-linecap="butt" stroke-linejoin="round"/><polyline points="98.5,104.0 102.5,106.0 105.5,115.0" fill="none" stroke="#1E2430" stroke-width="3" stroke-linecap="round" stroke-linejoin="round"/><circle cx="97.0" cy="40.0" r="12" fill="#E9BC93" stroke="#1E2430" stroke-width="2"/><path d="M106.2,32.3 A12,12 0 1 0 86.6,46.0 Z" fill="#1E2430"/><polyline points="95.0,62.0 120.0,67.0 145.0,72.0" fill="none" stroke="#1E2430" stroke-width="15" stroke-linecap="round" stroke-linejoin="round"/><polyline points="95.0,62.0 120.0,67.0 145.0,72.0" fill="none" stroke="#FFFFFF" stroke-width="11" stroke-linecap="round" stroke-linejoin="round"/><circle cx="148.9" cy="72.8" r="6.5" fill="#E9BC93" stroke="#1E2430" stroke-width="2"/><polyline points="159.7,66.7 166.0,63.5" fill="none" stroke="#D6332E" stroke-width="2.5" stroke-linecap="round" stroke-linejoin="round"/><polyline points="160.9,73.8 167.8,74.8" fill="none" stroke="#D6332E" stroke-width="2.5" stroke-linecap="round" stroke-linejoin="round"/><polyline points="157.7,80.3 162.8,85.1" fill="none" stroke="#D6332E" stroke-width="2.5" stroke-linecap="round" stroke-linejoin="round"/></svg>