<svg xmlns="http://www.w3.org/2000/svg" viewBox="0 0 200 200" width="200" height="200"><title>Heiko-zuki</title><rect x="0" y="0" width="200" height="200" rx="24" fill="#F3EFE6"/><line x1="14" y1="185" x2="186" y2="185" stroke="#1E2430" stroke-width="1.5" opacity="0.25"/><ellipse cx="100.0" cy="185" rx="62" ry="5" fill="#1E2430" opacity="0.12"/><polyline points="97.0,63.0 122.0,60.0 147.0,60.0" fill="none" stroke="#1E2430" stroke-width="15" stroke-linecap="round" stroke-linejoin="round"/><polyline points="97.0,63.0 122.0,60.0 147.0,60.0" fill="none" stroke="#D5DAE1" stroke-width="11" stroke-linecap="round" stroke-linejoin="round"/><circle cx="151.0" cy="60.0" r="6.5" fill="#C99A72" stroke="#1E2430" stroke-width="2"/><polyline points="100.0,108.0 97.0,144.0 97.0,180.0" fill="none" stroke="#1E2430" stroke-width="16" stroke-linecap="round" stroke-linejoin="round"/><polyline points="100.0,108.0 97.0,144.0 97.0,180.0" fill="none" stroke="#D5DAE1" stroke-width="12" stroke-linecap="round" stroke-linejoin="round"/><polyline points="97.0,180.0 111.0,183.0" fill="none" stroke="#1E2430" stroke-width="10" stroke-linecap="round" stroke-linejoin="round"/><polyline points="97.0,180.0 111.0,183.0" fill="none" stroke="#C99A72" stroke-width="6" stroke-linecap="round" stroke-linejoin="round"/><polyline points="100.0,108.0 103.0,144.0 103.0,180.0" fill="none" stroke="#1E2430" stroke-width="16" stroke-linecap="round" stroke-linejoin="round"/><polyline points="100.0,108.0 103.0,144.0 103.0,180.0" fill="none" stroke="#FFFFFF" stroke-width="12" stroke-linecap="round" stroke-linejoin="round"/><polyline points="103.0,180.0 117.0,183.0" fill="none" stroke="#1E2430" stroke-width="10" stroke-linecap="round" stroke-linejoin="round"/><polyline points="103.0,180.0 117.0,183.0" fill="none" stroke="#E9BC93" stroke-width="6" stroke-linecap="round" stroke-linejoin="round"/><polyline points="100.0,108.0 100.0,62.0" fill="none" stroke="#1E2430" stroke-width="28" stroke-linecap="round" stroke-linejoin="round"/><polyline points="100.0,108.0 100.0,62.0" fill="none" stroke="#FFFFFF" stroke-width="24" stroke-linecap="round" stroke-linejoin="round"/><polyline points="100.0,106.0 100.0,100.0" fill="none" stroke="#1E2430" stroke-width="28" stroke-linecap="butt" stroke-linejoin="round"/><polyline points="106.0,100.0 110.0,102.0 113.0,111.0" fill="none" stroke="#1E2430" stroke-width="3" stroke-linecap="round" stroke-linejoin="round"/><circle cx="102.0" cy="40.0" r="12" fill="#E9BC93" stroke="#1E2430" stroke-width="2"/><path d="M111.2,32.3 A12,12 0 1 0 91.6,46.0 Z" fill="#1E2430"/><polyline points="100.0,62.0 125.0,70.0 150.0,76.0" fill="none" stroke="#1E2430" stroke-width="15" stroke-linecap="round" stroke-linejoin="round"/><polyline points="100.0,62.0 125.0,70.0 150.0,76.0" fill="none" stroke="#FFFFFF" stroke-width="11" stroke-linecap="round" stroke-linejoin="round"/><circle cx="153.9" cy="76.9" r="6.5" fill="#E9BC93" stroke="#1E2430" stroke-width="2"/><path d="M112,50 L148,48" fill="none" stroke="#D6332E" stroke-width="2.5" stroke-linecap="round"/><polygon points="148.0,48.0 141.2,52.6 140.8,44.2" fill="#D6332E"/><path d="M114,90 L148,90" fill="none" stroke="#D6332E" stroke-width="2.5" stroke-linecap="round"/><polygon points="148.0,90.0 141.0,94.2 141.0,85.8" fill="#D6332E"/></svg>