<svg xmlns="http://www.w3.org/2000/svg" viewBox="0 0 200 200" width="200" height="200"><title>Yoko-zuki</title><rect x="0" y="0" width="200" height="200" rx="24" fill="#F3EFE6"/><line x1="14" y1="185" x2="186" y2="185" stroke="#1E2430" stroke-width="1.5" opacity="0.25"/><ellipse cx="100" cy="185" rx="58" ry="5" fill="#1E2430" opacity="0.12"/><polyline points="88.0,112.0 62.0,144.0 60.0,180.0" fill="none" stroke="#1E2430" stroke-width="16" stroke-linecap="round" stroke-linejoin="round"/><polyline points="88.0,112.0 62.0,144.0 60.0,180.0" fill="none" stroke="#FFFFFF" stroke-width="12" stroke-linecap="round" stroke-linejoin="round"/><polyline points="60.0,180.0 50.0,183.0" fill="none" stroke="#1E2430" stroke-width="10" stroke-linecap="round" stroke-linejoin="round"/><polyline points="60.0,180.0 50.0,183.0" fill="none" stroke="#E9BC93" stroke-width="6" stroke-linecap="round" stroke-linejoin="round"/><polyline points="112.0,112.0 138.0,144.0 140.0,180.0" fill="none" stroke="#1E2430" stroke-width="16" stroke-linecap="round" stroke-linejoin="round"/><polyline points="112.0,112.0 138.0,144.0 140.0,180.0" fill="none" stroke="#FFFFFF" stroke-width="12" stroke-linecap="round" stroke-linejoin="round"/><polyline points="140.0,180.0 150.0,183.0" fill="none" stroke="#1E2430" stroke-width="10" stroke-linecap="round" stroke-linejoin="round"/><polyline points="140.0,180.0 150.0,183.0" fill="none" stroke="#E9BC93" stroke-width="6" stroke-linecap="round" stroke-linejoin="round"/><path d="M80,64 L120,64 L114,116 L86,116 Z" fill="#FFFFFF" stroke="#1E2430" stroke-width="2" stroke-linejoin="round"/><polyline points="91.0,64.0 104.0,94.0" fill="none" stroke="#1E2430" stroke-width="2" stroke-linecap="round" stroke-linejoin="round"/><polyline points="109.0,64.0 98.0,86.0" fill="none" stroke="#1E2430" stroke-width="2" stroke-linecap="round" stroke-linejoin="round"/><rect x="85" y="110" width="30" height="7" fill="#1E2430"/><polyline points="102.0,116.0 97.0,126.0" fill="none" stroke="#1E2430" stroke-width="3" stroke-linecap="round" stroke-linejoin="round"/><polyline points="103.0,116.0 108.0,125.0" fill="none" stroke="#1E2430" stroke-width="3" stroke-linecap="round" stroke-linejoin="round"/><circle cx="100.0" cy="42.0" r="12" fill="#E9BC93" stroke="#1E2430" stroke-width="2"/><path d="M109.2,34.3 A12,12 0 1 0 89.6,48.0 Z" fill="#1E2430"/><polyline points="80.0,64.0 66.0,88.0 78.0,106.0" fill="none" stroke="#1E2430" stroke-width="15" stroke-linecap="round" stroke-linejoin="round"/><polyline points="80.0,64.0 66.0,88.0 78.0,106.0" fill="none" stroke="#FFFFFF" stroke-width="11" stroke-linecap="round" stroke-linejoin="round"/><circle cx="80.2" cy="109.3" r="6.5" fill="#E9BC93" stroke="#1E2430" stroke-width="2"/><polyline points="120.0,64.0 145.0,64.0 170.0,64.0" fill="none" stroke="#1E2430" stroke-width="15" stroke-linecap="round" stroke-linejoin="round"/><polyline points="120.0,64.0 145.0,64.0 170.0,64.0" fill="none" stroke="#FFFFFF" stroke-width="11" stroke-linecap="round" stroke-linejoin="round"/><circle cx="174.0" cy="64.0" r="6.5" fill="#E9BC93" stroke="#1E2430" stroke-width="2"/><polyline points="185.9,58.9 192.2,56.0" fill="none" stroke="#D6332E" stroke-width="2.5" stroke-linecap="round" stroke-linejoin="round"/><polyline points="185.9,69.1 192.2,72.0" fill="none" stroke="#D6332E" stroke-width="2.5" stroke-linecap="round" stroke-linejoin="round"/><path d="M130,50 L166,50" fill="none" stroke="#D6332E" stroke-width="2.5" stroke-linecap="round"/><polygon points="166.0,50.0 159.0,54.2 159.0,45.8" fill="#D6332E"/></svg>