<svg xmlns="http://www.w3.org/2000/svg" viewBox="0 0 200 200" width="200" height="200"><title>Choku-zuki</title><rect x="0" y="0" width="200" height="200" rx="24" fill="#F3EFE6"/><line x1="14" y1="185" x2="186" y2="185" stroke="#1E2430" stroke-width="1.5" opacity="0.25"/><ellipse cx="100.0" cy="185" rx="62" ry="5" fill="#1E2430" opacity="0.12"/><polyline points="97.0,63.0 73.0,84.0 90.0,102.0" fill="none" stroke="#1E2430" stroke-width="15" stroke-linecap="round" stroke-linejoin="round"/><polyline points="97.0,63.0 73.0,84.0 90.0,102.0" fill="none" stroke="#D5DAE1" stroke-width="11" stroke-linecap="round" stroke-linejoin="round"/><circle cx="92.7" cy="104.9" r="6.5" fill="#C99A72" stroke="#1E2430" stroke-width="2"/><polyline points="100.0,108.0 97.0,144.0 97.0,180.0" fill="none" stroke="#1E2430" stroke-width="16" stroke-linecap="round" stroke-linejoin="round"/><polyline points="100.0,108.0 97.0,144.0 97.0,180.0" fill="none" stroke="#D5DAE1" stroke-width="12" stroke-linecap="round" stroke-linejoin="round"/><polyline points="97.0,180.0 111.0,183.0" fill="none" stroke="#1E2430" stroke-width="10" stroke-linecap="round" stroke-linejoin="round"/><polyline points="97.0,180.0 111.0,183.0" fill="none" stroke="#C99A72" stroke-width="6" stroke-linecap="round" stroke-linejoin="round"/><polyline points="100.0,108.0 103.0,144.0 103.0,180.0" fill="none" stroke="#1E2430" stroke-width="16" stroke-linecap="round" stroke-linejoin="round"/><polyline points="100.0,108.0 103.0,144.0 103.0,180.0" fill="none" stroke="#FFFFFF" stroke-width="12" stroke-linecap="round" stroke-linejoin="round"/><polyline points="103.0,180.0 117.0,183.0" fill="none" stroke="#1E2430" stroke-width="10" stroke-linecap="round" stroke-linejoin="round"/><polyline points="103.0,180.0 117.0,183.0" fill="none" stroke="#E9BC93" stroke-width="6" stroke-linecap="round" stroke-linejoin="round"/><polyline points="100.0,108.0 100.0,62.0" fill="none" stroke="#1E2430" stroke-width="28" stroke-linecap="round" stroke-linejoin="round"/><polyline points="100.0,108.0 100.0,62.0" fill="none" stroke="#FFFFFF" stroke-width="24" stroke-linecap="round" stroke-linejoin="round"/><polyline points="100.0,106.0 100.0,100.0" fill="none" stroke="#1E2430" stroke-width="28" stroke-linecap="butt" stroke-linejoin="round"/><polyline points="106.0,100.0 110.0,102.0 113.0,111.0" fill="none" stroke="#1E2430" stroke-width="3" stroke-linecap="round" stroke-linejoin="round"/><circle cx="102.0" cy="40.0" r="12" fill="#E9BC93" stroke="#1E2430" stroke-width="2"/><path d="M111.2,32.3 A12,12 0 1 0 91.6,46.0 Z" fill="#1E2430"/><polyline points="100.0,62.0 125.0,67.0 150.0,72.0" fill="none" stroke="#1E2430" stroke-width="15" stroke-linecap="round" stroke-linejoin="round"/><polyline points="100.0,62.0 125.0,67.0 150.0,72.0" fill="none" stroke="#FFFFFF" stroke-width="11" stroke-linecap="round" stroke-linejoin="round"/><circle cx="153.9" cy="72.8" r="6.5" fill="#E9BC93" stroke="#1E2430" stroke-width="2"/><polyline points="164.7,66.7 171.0,63.5" fill="none" stroke="#D6332E" stroke-width="2.5" stroke-linecap="round" stroke-linejoin="round"/><polyline points="165.9,73.8 172.8,74.8" fill="none" stroke="#D6332E" stroke-width="2.5" stroke-linecap="round" stroke-linejoin="round"/><polyline points="162.7,80.3 167.8,85.1" fill="none" stroke="#D6332E" stroke-width="2.5" stroke-linecap="round" stroke-linejoin="round"/><circle cx="34" cy="34" r="22" fill="#FFFFFF" stroke="#1E2430" stroke-width="1.5" opacity="0.95"/><rect x="21" y="28" width="26" height="12" rx="4" fill="#E9BC93" stroke="#1E2430" stroke-width="1.5"/><polyline points="27.5,28.0 27.5,40.0" fill="none" stroke="#1E2430" stroke-width="1.2" stroke-linecap="round" stroke-linejoin="round"/><polyline points="34.0,28.0 34.0,40.0" fill="none" stroke="#1E2430" stroke-width="1.2" stroke-linecap="round" stroke-linejoin="round"/><polyline points="40.5,28.0 40.5,40.0" fill="none" stroke="#1E2430" stroke-width="1.2" stroke-linecap="round" stroke-linejoin="round"/><rect x="23" y="39" width="12" height="6" rx="3" fill="#E9BC93" stroke="#1E2430" stroke-width="1.5"/></svg>