<svg xmlns="http://www.w3.org/2000/svg" viewBox="0 0 200 200" width="200" height="200"><title>Morote-ura-zuki</title><rect x="0" y="0" width="200" height="200" rx="24" fill="#F3EFE6"/><line x1="14" y1="185" x2="186" y2="185" stroke="#1E2430" stroke-width="1.5" opacity="0.25"/><ellipse cx="85.0" cy="185" rx="62" ry="5" fill="#1E2430" opacity="0.12"/><polyline points="97.0,71.0 104.0,88.0 130.0,72.0" fill="none" stroke="#1E2430" stroke-width="15" stroke-linecap="round" stroke-linejoin="round"/><polyline points="97.0,71.0 104.0,88.0 130.0,72.0" fill="none" stroke="#D5DAE1" stroke-width="11" stroke-linecap="round" stroke-linejoin="round"/><circle cx="133.4" cy="69.9" r="6.5" fill="#C99A72" stroke="#1E2430" stroke-width="2"/><polyline points="92.0,120.0 68.0,148.0 44.0,179.0" fill="none" stroke="#1E2430" stroke-width="16" stroke-linecap="round" stroke-linejoin="round"/><polyline points="92.0,120.0 68.0,148.0 44.0,179.0" fill="none" stroke="#D5DAE1" stroke-width="12" stroke-linecap="round" stroke-linejoin="round"/><polyline points="44.0,179.0 57.0,184.0" fill="none" stroke="#1E2430" stroke-width="10" stroke-linecap="round" stroke-linejoin="round"/><polyline points="44.0,179.0 57.0,184.0" fill="none" stroke="#C99A72" stroke-width="6" stroke-linecap="round" stroke-linejoin="round"/><polyline points="92.0,120.0 122.0,146.0 126.0,180.0" fill="none" stroke="#1E2430" stroke-width="16" stroke-linecap="round" stroke-linejoin="round"/><polyline points="92.0,120.0 122.0,146.0 126.0,180.0" fill="none" stroke="#FFFFFF" stroke-width="12" stroke-linecap="round" stroke-linejoin="round"/><polyline points="126.0,180.0 140.0,183.0" fill="none" stroke="#1E2430" stroke-width="10" stroke-linecap="round" stroke-linejoin="round"/><polyline points="126.0,180.0 140.0,183.0" fill="none" stroke="#E9BC93" stroke-width="6" stroke-linecap="round" stroke-linejoin="round"/><polyline points="92.0,120.0 100.0,70.0" fill="none" stroke="#1E2430" stroke-width="28" stroke-linecap="round" stroke-linejoin="round"/><polyline points="92.0,120.0 100.0,70.0" fill="none" stroke="#FFFFFF" stroke-width="24" stroke-linecap="round" stroke-linejoin="round"/><polyline points="92.3,118.0 93.3,112.1" fill="none" stroke="#1E2430" stroke-width="28" stroke-linecap="butt" stroke-linejoin="round"/><polyline points="99.3,112.1 103.3,114.1 106.3,123.1" fill="none" stroke="#1E2430" stroke-width="3" stroke-linecap="round" stroke-linejoin="round"/><circle cx="104.0" cy="48.0" r="12" fill="#E9BC93" stroke="#1E2430" stroke-width="2"/><path d="M113.2,40.3 A12,12 0 1 0 93.6,54.0 Z" fill="#1E2430"/><polyline points="100.0,70.0 106.0,94.0 133.0,90.0" fill="none" stroke="#1E2430" stroke-width="15" stroke-linecap="round" stroke-linejoin="round"/><polyline points="100.0,70.0 106.0,94.0 133.0,90.0" fill="none" stroke="#FFFFFF" stroke-width="11" stroke-linecap="round" stroke-linejoin="round"/><circle cx="137.0" cy="89.4" r="6.5" fill="#E9BC93" stroke="#1E2430" stroke-width="2"/><path d="M140,108 Q156,106 158,84" fill="none" stroke="#D6332E" stroke-width="2.5" stroke-linecap="round" stroke-dasharray="5 4"/><polygon points="158.0,84.0 161.5,91.4 153.2,90.6" fill="#D6332E"/><circle cx="34" cy="34" r="22" fill="#FFFFFF" stroke="#1E2430" stroke-width="1.5" opacity="0.95"/><rect x="21" y="28" width="26" height="12" rx="4" fill="#E9BC93" stroke="#1E2430" stroke-width="1.5"/><polyline points="27.5,28.0 27.5,40.0" fill="none" stroke="#1E2430" stroke-width="1.2" stroke-linecap="round" stroke-linejoin="round"/><polyline points="34.0,28.0 34.0,40.0" fill="none" stroke="#1E2430" stroke-width="1.2" stroke-linecap="round" stroke-linejoin="round"/><polyline points="40.5,28.0 40.5,40.0" fill="none" stroke="#1E2430" stroke-width="1.2" stroke-linecap="round" stroke-linejoin="round"/><rect x="23" y="23" width="12" height="6" rx="3" fill="#E9BC93" stroke="#1E2430" stroke-width="1.5"/></svg>